<?xml version="1.0" encoding="UTF-8"?>
<svg width="820px" height="822px" viewBox="0 0 820 822" version="1.1" xmlns="http://www.w3.org/2000/svg" xmlns:xlink="http://www.w3.org/1999/xlink">
    <title>Group 2</title>
    <g id="Page-1" stroke="none" stroke-width="1" fill="none" fill-rule="evenodd">
        <g id="Group-2" transform="translate(0.7207, 0.4283)">
            <path d="M590.094597,65.5039817 C653.632548,96.4935112 680.018257,173.123175 649.028728,236.661126 C637.889941,259.499025 620.854674,277.537038 600.650288,289.83606 L600.805238,289.910493 C600.386589,290.104006 599.968317,290.298021 599.55042,290.492537 C593.57038,294.056866 587.317331,297.11814 580.863416,299.656404 C554.69639,313.14891 530.086791,328.720028 507.034035,346.367482 C479.196327,367.677936 447.777687,396.495327 412.778115,432.819655 C458.396905,411.598495 495.783336,391.315401 524.938429,371.970427 C549.129668,355.919067 571.864551,337.719694 593.141116,317.371016 C597.642281,312.095097 602.572566,307.179377 607.889616,302.68557 C608.209588,302.353769 608.529209,302.02145 608.848479,301.688611 L608.868409,301.859353 C627.075268,286.7599 649.676685,276.525342 674.896776,273.428704 C745.062294,264.813461 808.926718,314.709818 817.54196,384.875335 C826.157202,455.040852 776.260845,518.905276 706.095328,527.520518 C690.958837,529.379046 676.115583,528.51459 662.058498,525.306396 C674.918951,531.654425 686.92328,540.288445 697.458275,551.197752 C746.565376,602.049644 745.150944,683.082417 694.299052,732.189518 C643.447161,781.296619 562.414387,779.882186 513.307286,729.030295 C495.656665,710.752542 484.532959,688.575698 479.885827,665.383692 L479.762655,665.502681 C479.72413,665.044672 479.68501,664.586842 479.641139,664.130153 C478.341143,657.289163 477.602858,650.36462 477.427335,643.43043 C473.69584,614.226531 467.480754,585.775436 458.782078,558.077147 C448.552633,525.504586 432.794714,487.305835 411.508323,443.480895 L440.279311,790.571723 L377.279311,790.571723 L405.856112,445.843322 C385.148648,488.679952 369.77231,526.091227 359.7271,558.077147 C351.028424,585.775436 344.813338,614.226531 341.081843,643.43043 C340.90632,650.36462 340.168035,657.289163 338.86804,664.130153 C338.824168,664.586842 338.785048,665.044672 338.746523,665.502681 L338.623351,665.383692 C333.97622,688.575698 322.852513,710.752542 305.201892,729.030295 C256.094791,779.882186 175.062017,781.296619 124.210126,732.189518 C73.3582346,683.082417 71.9438023,602.049644 121.050903,551.197752 C131.585899,540.288445 143.590227,531.654425 156.45068,525.306396 C142.393595,528.51459 127.550341,529.379046 112.41385,527.520518 C42.2483328,518.905276 -7.64802367,455.040852 0.967218551,384.875335 C9.58246077,314.709818 73.4468847,264.813461 143.612402,273.428704 C168.832494,276.525342 191.43391,286.7599 209.640769,301.859353 L209.6607,301.688611 C209.979969,302.02145 210.29959,302.353769 210.619562,302.68557 C215.936612,307.179377 220.866897,312.095097 225.368062,317.371016 C246.644627,337.719694 269.37951,355.919067 293.570749,371.970427 C322.4244,391.115388 359.340056,411.17917 404.317719,432.161774 C369.077036,396.9077 337.480162,368.963358 309.528274,348.32912 C286.171039,331.086679 261.293434,315.94743 234.895461,302.911372 C228.396943,300.488138 222.090721,297.536063 216.046307,294.080195 C215.628029,293.889429 215.207219,293.703093 214.786043,293.517262 L214.939671,293.440136 C194.523714,281.495602 177.176235,263.757643 165.640568,241.117622 C133.546868,178.130189 158.591187,101.051702 221.578619,68.9580025 C284.566052,36.8643027 361.644539,61.9086213 393.738238,124.896054 C400.623332,138.408811 404.878731,152.570088 406.693956,166.796602 C408.237088,152.460881 412.25222,138.144869 418.937452,124.438113 C449.926982,60.9001615 526.556646,34.5144522 590.094597,65.5039817 Z" id="Combined-Shape" fill="#656D4A"></path>
            <path d="M143.612402,273.428704 C168.832494,276.525342 191.43391,286.7599 209.640769,301.859353 L209.6607,301.688611 C209.979969,302.02145 210.29959,302.353769 210.619562,302.68557 C215.936612,307.179377 220.866897,312.095097 225.368062,317.371016 C246.644627,337.719694 269.37951,355.919067 293.570749,371.970427 C323.809579,392.034481 362.903061,413.107694 410.851197,435.190066 L411.104033,435.102181 C387.728851,482.453835 370.603206,523.445491 359.7271,558.077147 C351.028424,585.775436 344.813338,614.226531 341.081843,643.43043 C340.90632,650.36462 340.168035,657.289163 338.86804,664.130153 C338.824168,664.586842 338.785048,665.044672 338.746523,665.502681 L338.623351,665.383692 C333.97622,688.575698 322.852513,710.752542 305.201892,729.030295 C282.337666,752.706894 252.552509,765.666312 222.115073,767.79913 C274.650595,716.659919 307.279311,645.176244 307.279311,566.071723 C307.279311,424.793297 203.203673,307.823038 67.5394116,287.647963 C90.0284877,275.569356 116.34463,270.080642 143.612402,273.428704 Z" id="Combined-Shape" fill="#414833"></path>
            <path d="M483.612402,273.428704 C508.832494,276.525342 531.43391,286.7599 549.640769,301.859353 L549.6607,301.688611 C549.979969,302.02145 550.29959,302.353769 550.619562,302.68557 C555.936612,307.179377 560.866897,312.095097 565.368062,317.371016 C586.644627,337.719694 609.37951,355.919067 633.570749,371.970427 C663.809579,392.034481 702.903061,413.107694 750.851197,435.190066 L751.104033,435.102181 C727.728851,482.453835 710.603206,523.445491 699.7271,558.077147 C691.028424,585.775436 684.813338,614.226531 681.081843,643.43043 C680.90632,650.36462 680.168035,657.289163 678.86804,664.130153 C678.824168,664.586842 678.785048,665.044672 678.746523,665.502681 L678.623351,665.383692 C673.97622,688.575698 662.852513,710.752542 645.201892,729.030295 C622.337666,752.706894 592.552509,765.666312 562.115073,767.79913 C614.650595,716.659919 647.279311,645.176244 647.279311,566.071723 C647.279311,424.793297 543.203673,307.823038 407.539412,287.647963 C430.028488,275.569356 456.34463,270.080642 483.612402,273.428704 Z" id="Combined-Shape-Copy-2" fill="#414833" transform="translate(579.3217, 520.1303) scale(-1, 1) translate(-579.3217, -520.1303)"></path>
            <path d="M334.612402,-0.571296335 C359.832494,2.52534157 382.43391,12.7599001 400.640769,27.8593526 L400.6607,27.6886114 C400.979969,28.0214495 401.29959,28.3537691 401.619562,28.6855702 C406.936612,33.1793766 411.866897,38.0950973 416.368062,43.3710161 C437.644627,63.7196944 460.37951,81.9190674 484.570749,97.9704273 C514.809579,118.034481 553.903061,139.107694 601.851197,161.190066 L602.104033,161.102181 C578.728851,208.453835 561.603206,249.445491 550.7271,284.077147 C542.028424,311.775436 535.813338,340.226531 532.081843,369.43043 C531.90632,376.36462 531.168035,383.289163 529.86804,390.130153 C529.824168,390.586842 529.785048,391.044672 529.746523,391.502681 L529.623351,391.383692 C524.97622,414.575698 513.852513,436.752542 496.201892,455.030295 C473.337666,478.706894 443.552509,491.666312 413.115073,493.79913 C465.650595,442.659919 498.279311,371.176244 498.279311,292.071723 C498.279311,150.793297 394.203673,33.8230385 258.539412,13.6479633 C281.028488,1.56935599 307.34463,-3.91935771 334.612402,-0.571296335 Z" id="Combined-Shape-Copy-3" fill="#414833" transform="translate(430.3217, 246.1303) scale(-1, 1) rotate(110) translate(-430.3217, -246.1303)"></path>
            <g id="Group-Copy" opacity="0.516648065" transform="translate(499.7731, 251.7229) rotate(26) translate(-499.7731, -251.7229)translate(371.7731, 45.2229)" fill="#A4AC86">
                <circle id="Oval-Copy" transform="translate(128, 128) scale(-1, 1) translate(-128, -128)" cx="128" cy="128" r="128"></circle>
                <path d="M128,197 C144.078524,247.299696 160.234563,288.683097 176.468117,321.150204 C192.70167,353.617311 212.545631,384.23391 236,413 L20,413 L128,197 Z" id="Triangle-Copy" transform="translate(128, 305) scale(-1, 1) rotate(-180) translate(-128, -305)"></path>
            </g>
            <g id="Group-Copy-2" opacity="0.516648065" transform="translate(550.7731, 583.7229) rotate(136) translate(-550.7731, -583.7229)translate(422.7731, 377.2229)" fill="#A4AC86">
                <circle id="Oval-Copy" transform="translate(128, 128) scale(-1, 1) translate(-128, -128)" cx="128" cy="128" r="128"></circle>
                <path d="M128,197 C144.078524,247.299696 160.234563,288.683097 176.468117,321.150204 C192.70167,353.617311 212.545631,384.23391 236,413 L20,413 L128,197 Z" id="Triangle-Copy" transform="translate(128, 305) scale(-1, 1) rotate(-180) translate(-128, -305)"></path>
            </g>
            <g id="Group-Copy-3" opacity="0.516648065" transform="translate(266.7731, 583.7229) scale(-1, 1) rotate(136) translate(-266.7731, -583.7229)translate(138.7731, 377.2229)" fill="#A4AC86">
                <circle id="Oval-Copy" transform="translate(128, 128) scale(-1, 1) translate(-128, -128)" cx="128" cy="128" r="128"></circle>
                <path d="M128,197 C144.078524,247.299696 160.234563,288.683097 176.468117,321.150204 C192.70167,353.617311 212.545631,384.23391 236,413 L20,413 L128,197 Z" id="Triangle-Copy" transform="translate(128, 305) scale(-1, 1) rotate(-180) translate(-128, -305)"></path>
            </g>
            <path d="M407.279311,416.603723 L407.279311,790.570723 L376.279311,790.571723 L407.279311,416.603723 Z" id="Combined-Shape" fill="#414833"></path>
            <path d="M205.548777,421.077194 C215.866537,421.042292 244.866537,484.472703 292.548777,611.36843 L210.886792,452.25492 C209.373733,449.306816 205.757246,448.143482 202.809142,449.65654 C201.692577,450.229596 200.783818,451.138355 200.210762,452.25492 L118.548777,611.36843 L118.548777,611.36843 C166.231017,484.54307 195.231017,421.112659 205.548777,421.077194 Z" id="Triangle" fill="#B6AD90" opacity="0.450404576" transform="translate(205.5488, 516.2228) rotate(66) translate(-205.5488, -516.2228)"></path>
            <path d="M613.548777,421.077194 C623.866537,421.042292 652.866537,484.472703 700.548777,611.36843 L618.886792,452.25492 C617.373733,449.306816 613.757246,448.143482 610.809142,449.65654 C609.692577,450.229596 608.783818,451.138355 608.210762,452.25492 L526.548777,611.36843 L526.548777,611.36843 C574.231017,484.54307 603.231017,421.112659 613.548777,421.077194 Z" id="Triangle-Copy-2" fill="#B6AD90" opacity="0.450404576" transform="translate(613.5488, 516.2228) scale(-1, 1) rotate(66) translate(-613.5488, -516.2228)"></path>
            <path d="M406.548777,120.075592 C416.866537,120.040689 445.866537,183.471101 493.548777,310.366827 L411.886792,151.253317 C410.373733,148.305213 406.757246,147.141879 403.809142,148.654937 C402.692577,149.227993 401.783818,150.136752 401.210762,151.253317 L319.548777,310.366827 L319.548777,310.366827 C367.231017,183.541468 396.231017,120.111056 406.548777,120.075592 Z" id="Triangle-Copy-3" fill="#B6AD90" opacity="0.450404576" transform="translate(406.5488, 215.2212) scale(-1, 1) rotate(181) translate(-406.5488, -215.2212)"></path>
        </g>
    </g>
</svg>